<svg xmlns="http://www.w3.org/2000/svg" xmlns:xlink="http://www.w3.org/1999/xlink" width="500" zoomAndPan="magnify" viewBox="0 0 375 374.999991" height="500" preserveAspectRatio="xMidYMid meet" version="1.0"><defs><filter x="0%" y="0%" width="100%" height="100%" id="137383431b"><feColorMatrix values="0 0 0 0 1 0 0 0 0 1 0 0 0 0 1 0 0 0 1 0" color-interpolation-filters="sRGB"/></filter><g/><mask id="ea354f4121"><g filter="url(#137383431b)"><rect x="-37.5" width="450" fill="#000000" y="-37.499999" height="449.999989" fill-opacity="0.498"/></g></mask><clipPath id="7549e62627"><path d="M 363 229 L 374.878906 229 L 374.878906 276 L 363 276 Z M 363 229 " clip-rule="nonzero"/></clipPath><clipPath id="e7f639a11c"><path d="M 202 0.9375 L 207 0.9375 L 207 2 L 202 2 Z M 202 0.9375 " clip-rule="nonzero"/></clipPath><clipPath id="5100d98e62"><rect x="0" width="375" y="0" height="375"/></clipPath></defs><g mask="url(#ea354f4121)"><g transform="matrix(1, 0, 0, 1, 0, 0)"><g clip-path="url(#5100d98e62)"><path fill="#edcb01" d="M 10.375 239.164062 L 10.234375 239.285156 L 10.699219 240.800781 Z M 362.769531 170.066406 C 362.738281 171.6875 362.316406 171.75 361.835938 169.726562 C 361.164062 166.882812 360.429688 163.972656 359.828125 160.644531 C 358.335938 154.351562 356.355469 147.910156 354.664062 141.453125 C 348.769531 123.746094 340.304688 106.984375 329.714844 91.570312 L 321.675781 80.808594 L 312.59375 70.898438 C 310.207031 68.066406 307.316406 65.726562 304.59375 63.398438 C 301.707031 60.921875 299.070312 58.738281 296.960938 57.144531 C 294.757812 55.660156 293 54.871094 292.175781 54.777344 C 290.996094 54.679688 288.003906 52.878906 283.554688 49.71875 C 270.285156 41.4375 256.496094 33.972656 241.003906 28.917969 L 234.917969 26.757812 L 228.648438 25.28125 C 226.828125 24.855469 224.957031 24.75 225.84375 25.132812 C 226.578125 25.449219 227.5625 25.84375 228.722656 26.191406 C 230.632812 26.738281 232.761719 27.347656 234.804688 27.929688 C 249.929688 33.15625 264.394531 39.753906 277.371094 48.703125 C 283.316406 52.644531 288.871094 57.238281 294.480469 61.710938 C 298.679688 65.726562 302.996094 69.417969 306.398438 73.339844 C 308.792969 76.363281 311.777344 79.625 314.667969 82.847656 C 318.875 87.710938 322.351562 93.148438 326.25 98.234375 C 329.417969 103.8125 332.984375 109.164062 335.84375 114.886719 C 336.027344 115.296875 336.207031 115.894531 336.179688 115.984375 C 336.148438 116.074219 335.847656 115.753906 335.699219 115.453125 C 333.183594 110.402344 329.730469 105.828125 326.964844 100.9375 C 320.976562 91.929688 314.304688 83.644531 306.828125 76.089844 C 305.40625 74.523438 303.9375 72.914062 302.3125 71.542969 C 289.304688 58.277344 273.660156 47.808594 257.113281 39.542969 C 253.269531 37.683594 249.46875 35.554688 245.554688 34.214844 C 231.464844 27.804688 215.882812 24.636719 200.199219 22.4375 C 183.710938 21.320312 166.992188 21.25 150.746094 24.53125 C 123.75 29.109375 98.414062 41.238281 76.691406 57.664062 C 61.925781 69.039062 48.863281 82.695312 38.097656 97.992188 C 27.191406 113.96875 19.015625 131.925781 13.902344 150.652344 C 13.019531 154.136719 11.964844 157.582031 11.164062 161.074219 L 9.40625 171.683594 C 6.660156 191.679688 7.183594 212.210938 11.160156 232.0625 C 12.074219 235.550781 12.996094 239.074219 13.90625 242.542969 C 18.65625 258.421875 24.925781 273.855469 33.828125 287.953125 C 36.1875 292.375 39.199219 296.441406 42.300781 300.472656 L 46.859375 306.585938 L 51.953125 312.246094 C 55.371094 315.988281 58.632812 319.875 62.523438 323.132812 L 64.941406 325.566406 C 64.109375 324.925781 63.34375 324.332031 62.433594 323.628906 C 60.949219 322.40625 59.375 321.117188 57.835938 319.851562 L 58.226562 320.171875 C 54.578125 316.554688 50.945312 312.664062 47.230469 308.761719 C 43.726562 304.683594 40.578125 300.222656 37.210938 296 C 35.984375 294.546875 34.988281 293.164062 34.019531 291.808594 C 33.847656 291.570312 33.808594 291.75 33.921875 292.046875 C 34.046875 292.367188 34.378906 293.042969 34.691406 293.570312 C 37.941406 298.414062 41.589844 303.015625 44.972656 307.769531 C 49.332031 312.761719 53.644531 317.664062 58.363281 322.21875 C 70.007812 333.105469 83.035156 342.390625 96.957031 350.074219 C 105.398438 354.167969 113.765625 358.425781 122.367188 360.742188 C 126 361.859375 130.335938 363.664062 134.582031 364.511719 L 145.121094 367.171875 C 148.640625 368.058594 152.285156 368.304688 155.855469 368.921875 C 162.992188 370.304688 170.257812 370.476562 177.503906 370.835938 C 194.839844 371.0625 212.421875 369.726562 229.089844 364.847656 C 234.433594 363.796875 239.429688 361.722656 244.546875 359.96875 C 249.738281 358.378906 254.609375 355.949219 259.519531 353.46875 C 262.046875 352.136719 264.859375 351.050781 267.300781 349.59375 C 281.199219 342.019531 294.171875 332.34375 305.769531 321.378906 C 319.328125 308.117188 330.703125 293.089844 339.730469 276.761719 C 343.191406 270.042969 346.722656 263.582031 349.195312 256.730469 C 352.25 250.089844 354.222656 243.171875 356.273438 236.1875 C 358.378906 230.191406 358.9375 224.847656 360.324219 221.347656 C 361.558594 217.679688 362.367188 216.628906 362.359375 221.152344 C 362.359375 222.878906 362.339844 224.738281 362.472656 225.792969 C 362.710938 227.921875 362.785156 230.34375 362.316406 233.378906 C 361.675781 236.378906 360.671875 240.03125 359.257812 244.722656 C 358.175781 248.871094 356.617188 252.894531 354.917969 256.941406 C 353.1875 260.960938 351.929688 265.246094 349.835938 269.285156 C 348.476562 271.941406 347.140625 274.558594 345.804688 277.164062 C 343.324219 281.976562 342.160156 283.332031 343.132812 280.265625 C 343.691406 278.558594 344.351562 276.550781 344.882812 274.914062 C 345.285156 273.613281 344.320312 274.417969 343.273438 276.300781 C 341.511719 279.746094 339.402344 282.992188 337.066406 286.449219 C 329.019531 300.515625 318.160156 312.859375 306.695312 324.21875 C 305.066406 325.695312 303.359375 327.234375 301.757812 328.6875 C 287.042969 342.355469 269.949219 352.792969 251.695312 360.5 C 228.523438 369.964844 203.425781 374.464844 178.308594 373.945312 L 165.046875 373.28125 C 143.75 371.078125 122.925781 365.058594 103.78125 355.589844 C 96.640625 352.546875 90.277344 348.007812 83.574219 344.128906 C 80.34375 342 77.335938 339.539062 74.199219 337.289062 C 71.0625 335.03125 67.953125 332.757812 65.183594 330.09375 C 48.945312 316.328125 35.28125 299.328125 24.769531 280.855469 C 15.933594 264.804688 9.6875 247.476562 5.347656 230.472656 C 4.269531 223.695312 2.253906 216.429688 1.964844 209.1875 C 1.742188 206.304688 1.503906 203.144531 1.300781 200.503906 C 0.367188 188.753906 1.101562 175.90625 3.121094 163.433594 C 3.570312 158.214844 5.1875 153.25 6.277344 148.15625 C 7.292969 143.027344 8.90625 138.070312 10.757812 133.148438 C 15.34375 118.8125 22.878906 105.464844 31.09375 92.933594 C 40.867188 79.730469 51.765625 67.511719 64.441406 57.210938 C 70.148438 52.507812 76.3125 48.320312 82.414062 44.078125 C 97.648438 34.066406 113.796875 27.695312 130.476562 22.738281 C 134.726562 21.792969 138.894531 20.867188 142.957031 19.960938 C 161.667969 16.746094 181.550781 15.753906 201.414062 17.847656 C 204.3125 18.289062 207.320312 18.75 210.152344 19.1875 L 217.769531 20.210938 C 220.28125 20.730469 222.761719 21.417969 225.261719 22.019531 C 230.238281 23.332031 235.351562 24.277344 240.148438 26.300781 C 243.625 27.578125 246.984375 28.390625 247.175781 28.070312 C 247.378906 27.726562 244.972656 26.449219 241.828125 25.152344 C 236.554688 22.691406 230.707031 21.472656 224.914062 19.960938 C 222.101562 19.335938 219.347656 18.199219 216.515625 17.847656 C 213.976562 17.390625 212.714844 16.644531 214.738281 16.777344 C 217.042969 16.898438 219.566406 17.109375 222.09375 17.71875 C 223.328125 17.964844 225.007812 18.367188 226.375 18.746094 C 229.867188 19.683594 233.324219 20.613281 236.769531 21.539062 L 246.792969 25.15625 C 253.597656 27.214844 259.816406 30.589844 266.304688 33.460938 C 272.328125 36.253906 277.992188 40.300781 283.839844 43.699219 L 298.25 54.601562 C 303.257812 59.328125 308.296875 63.601562 312.542969 68.433594 C 315.28125 71.644531 318.097656 74.949219 320.960938 78.308594 C 323.847656 81.640625 326.230469 85.464844 328.949219 89.035156 C 332.222656 93.167969 334.839844 97.785156 337.609375 102 C 342.03125 108.097656 344.820312 114.640625 347.644531 121.273438 C 350.136719 126.613281 351.578125 131.832031 354.042969 137.054688 C 355.917969 140.894531 357.074219 145.148438 358.390625 149.421875 C 359.589844 153.71875 361.3125 157.976562 361.96875 162.398438 C 362.425781 164.675781 362.800781 168.355469 362.769531 170.066406 " fill-opacity="1" fill-rule="nonzero"/><path fill="#edcb01" d="M 275.464844 15.996094 C 282.851562 19.878906 289.007812 24.464844 294.285156 28.171875 C 298.792969 32.074219 304.59375 36.496094 310.730469 41.171875 C 314.664062 44.621094 317.871094 47.652344 320.617188 50.640625 C 323.15625 53.199219 325.535156 56.300781 328.246094 59.648438 C 332.910156 65.332031 334.828125 68.234375 335.132812 69.757812 C 335.203125 70.203125 335.96875 71.585938 336.804688 72.964844 C 337.207031 73.632812 338.527344 75.335938 339.429688 76.515625 C 339.8125 77.011719 340.402344 77.664062 340.546875 77.753906 C 342.03125 78.886719 345.191406 81.554688 349.328125 88.683594 C 353.140625 95.078125 357.101562 101.117188 359.683594 107.683594 C 361.726562 112.683594 364.300781 117.371094 365.769531 122.597656 C 367.234375 126.988281 368.703125 131.410156 370.199219 135.902344 C 370.910156 138.09375 371.417969 140.625 372.082031 142.886719 C 372.425781 144.164062 372.972656 145.800781 373.199219 146.222656 C 373.421875 146.636719 373.546875 146.183594 373.378906 145.296875 C 372.691406 142.035156 372.222656 138.476562 371.109375 134.90625 C 368.59375 127.777344 366.746094 120.015625 363.464844 113.15625 C 360.355469 105.78125 357.195312 98.441406 353.066406 91.585938 C 349.4375 84.429688 344.816406 77.894531 340.191406 71.269531 C 337.722656 67.367188 334.324219 63.792969 331.238281 60.132812 C 328.871094 57.441406 326.625 54.628906 324.144531 52.039062 L 316.355469 44.554688 C 312.945312 41.128906 309.335938 37.917969 305.4375 35.039062 C 301.585938 32.105469 297.914062 28.894531 293.886719 26.203125 L 293.699219 26.164062 C 286.671875 21.890625 279.984375 16.984375 272.429688 13.578125 C 270.25 12.523438 268.007812 11.425781 265.792969 10.347656 C 265.21875 10.074219 264.105469 9.632812 264.132812 9.683594 C 264.21875 9.878906 264.253906 10.144531 265.027344 10.558594 C 268.378906 12.304688 271.886719 14.128906 275.464844 15.996094 " fill-opacity="1" fill-rule="nonzero"/><g clip-path="url(#7549e62627)"><path fill="#edcb01" d="M 373.132812 232.0625 C 371.757812 238.546875 369.46875 244.84375 367.683594 251.351562 C 367.191406 253.429688 366.179688 255.824219 365.429688 258.066406 C 364.132812 261.691406 363.304688 265.042969 363.617188 265.335938 C 363.9375 265.640625 365.304688 263.152344 366.59375 259.859375 C 367.132812 258.421875 367.707031 256.894531 368.269531 255.40625 C 368.515625 254.644531 368.847656 253.898438 369.015625 253.121094 C 370.582031 247.238281 371.46875 245.335938 371.253906 248.183594 C 371 250.5625 370.851562 253.691406 369.585938 257.542969 C 367.886719 263.410156 366.660156 268.253906 366.023438 271.808594 C 365.53125 274.59375 365.1875 276.117188 366.691406 274.375 C 367.25 273.78125 368.140625 271.6875 368.914062 269.820312 C 369.652344 267.960938 370.574219 265.210938 371.105469 263.414062 C 372.144531 259.925781 372.328125 258.324219 372.175781 257.582031 C 371.945312 256.691406 372.050781 255.675781 372.707031 251.554688 C 374.570312 240.363281 374.722656 236.253906 374.351562 229.546875 C 374.320312 228.128906 373.601562 229.65625 373.132812 232.0625 " fill-opacity="1" fill-rule="nonzero"/></g><path fill="#edcb01" d="M 345.941406 284.699219 C 343.59375 289.09375 342.867188 291.28125 341.40625 294.472656 C 340.132812 297.027344 338.632812 300.289062 336.164062 303.027344 C 335.039062 304.417969 334.148438 305.523438 333.222656 306.667969 C 332.8125 307.226562 332.238281 307.992188 331.902344 308.441406 C 331.21875 309.476562 330.210938 310.972656 330.140625 311.257812 C 329.535156 313.648438 334.074219 309.722656 339.28125 303.25 C 340.394531 302.035156 341.734375 299.246094 342.359375 298.066406 C 343 296.722656 342.941406 296.300781 343.117188 295.589844 C 343.425781 294.308594 344.457031 292.078125 346.390625 288.628906 C 348.308594 285.539062 349.613281 282.039062 351.027344 278.851562 C 351.519531 277.703125 351.898438 276.558594 351.96875 276.097656 C 352.25 274.257812 351.570312 274.453125 349.703125 277.21875 C 348.851562 278.460938 346.910156 282.480469 345.941406 284.699219 " fill-opacity="1" fill-rule="nonzero"/><path fill="#edcb01" d="M 314.394531 328.964844 C 307.464844 335.703125 304.019531 339.90625 302.519531 342.433594 C 302.398438 342.6875 303.917969 341.707031 304.347656 341.273438 C 308.265625 337.589844 312.125 333.957031 316.042969 330.273438 C 320.015625 325.941406 320.867188 324.296875 321.328125 323.125 C 321.316406 322.894531 321.355469 322.613281 321.277344 322.46875 C 320.992188 321.933594 317.734375 325.226562 314.394531 328.964844 " fill-opacity="1" fill-rule="nonzero"/><path fill="#edcb01" d="M 369.886719 231.542969 C 369.734375 231.070312 369.59375 230.390625 369.316406 230.832031 C 368.433594 232.472656 366.796875 236.480469 364.761719 242.199219 C 364.425781 243.164062 363.867188 245.144531 363.628906 246.261719 C 363.277344 248.164062 362.996094 249.722656 362.75 251.066406 C 362.910156 251.316406 362.933594 251.882812 363.148438 251.601562 C 364.464844 249.902344 366.246094 245.761719 368.523438 239.011719 C 369.339844 236.851562 370.210938 232.191406 369.886719 231.542969 " fill-opacity="1" fill-rule="nonzero"/><path fill="#edcb01" d="M 372.179688 210.449219 C 372.300781 207.625 372.492188 202.964844 372.6875 198.320312 C 372.765625 196.347656 372.460938 194.914062 372.238281 195.886719 C 371.292969 200.015625 370.625 206.980469 370.011719 214.476562 C 369.324219 218.671875 369.011719 223.730469 369.628906 222.929688 C 370.132812 221.960938 371.9375 217.589844 372.179688 210.449219 " fill-opacity="1" fill-rule="nonzero"/><path fill="#edcb01" d="M 338.386719 295.808594 C 338.625 295.253906 338.285156 295.351562 337.84375 295.945312 C 336.894531 297.148438 335.867188 298.996094 334.3125 300.695312 C 332.3125 303.40625 330.144531 306.347656 328.035156 309.207031 C 327.378906 310.117188 326.6875 311.316406 326.566406 311.683594 C 326.445312 312.054688 326.792969 311.910156 327.339844 311.34375 C 330.585938 307.714844 336.875 300.238281 338.386719 295.808594 " fill-opacity="1" fill-rule="nonzero"/><path fill="#edcb01" d="M 44.460938 44.648438 C 48.140625 41.5 51.625 38.0625 55.371094 35.203125 C 55.804688 34.835938 56.089844 34.496094 56.015625 34.46875 C 55.9375 34.445312 55.441406 34.699219 54.945312 35.042969 C 49.542969 38.644531 45.140625 43.535156 40.34375 47.847656 C 39.921875 48.246094 39.667969 48.601562 39.339844 48.972656 C 39.839844 48.578125 40.285156 48.226562 40.855469 47.773438 C 42.019531 46.761719 43.253906 45.691406 44.460938 44.648438 " fill-opacity="1" fill-rule="nonzero"/><path fill="#edcb01" d="M 354.507812 119.847656 C 354.519531 120.007812 354.824219 120.734375 355.113281 121.53125 C 355.925781 123.222656 356.578125 125.335938 357.386719 127.335938 C 357.585938 127.855469 357.90625 128.484375 358.019531 128.609375 C 358.324219 128.953125 358.128906 128.042969 357.488281 126.3125 C 356.695312 124.285156 356.03125 122.210938 354.964844 120.371094 C 354.789062 120.019531 354.5 119.699219 354.507812 119.847656 " fill-opacity="1" fill-rule="nonzero"/><path fill="#edcb01" d="M 347.667969 305.386719 C 347.425781 306.078125 347.757812 305.808594 348.613281 304.429688 C 349.066406 303.699219 349.523438 302.695312 349.839844 302.003906 C 349.933594 301.804688 349.613281 302.125 349.347656 302.488281 C 348.582031 303.535156 347.988281 304.570312 347.667969 305.386719 " fill-opacity="1" fill-rule="nonzero"/><path fill="#edcb01" d="M 364.4375 156.992188 C 364.382812 156.542969 364.386719 156.199219 364.261719 155.621094 C 363.992188 154.351562 363.679688 152.808594 363.351562 151.652344 C 362.90625 150.097656 362.660156 149.839844 362.785156 150.917969 C 362.984375 152.53125 363.582031 155.054688 364.109375 156.53125 C 364.253906 156.929688 364.332031 156.851562 364.4375 156.992188 " fill-opacity="1" fill-rule="nonzero"/><path fill="#edcb01" d="M 365.089844 214.828125 C 365.011719 214.152344 364.777344 214.90625 364.492188 216.765625 C 364.410156 217.300781 364.417969 217.835938 364.386719 218.371094 C 364.492188 218.9375 364.703125 218.277344 364.992188 216.40625 C 365.074219 215.867188 365.113281 215.058594 365.089844 214.828125 " fill-opacity="1" fill-rule="nonzero"/><g clip-path="url(#e7f639a11c)"><path fill="#edcb01" d="M 206.292969 1.796875 C 206.929688 1.71875 206.148438 1.476562 204.3125 1.179688 C 203.6875 1.074219 202.53125 0.941406 202.378906 0.964844 C 201.78125 1.046875 202.574219 1.28125 204.34375 1.589844 C 205.019531 1.664062 206.125 1.816406 206.292969 1.796875 " fill-opacity="1" fill-rule="nonzero"/></g><path fill="#edcb01" d="M 12.085938 80.691406 L 11.640625 81.042969 C 11.007812 82.148438 10.363281 83.265625 9.753906 84.332031 C 9.714844 84.402344 10.019531 84.117188 10.171875 84 L 12.085938 80.691406 " fill-opacity="1" fill-rule="nonzero"/><path fill="#edcb01" d="M 349.839844 293.164062 C 349.789062 293.132812 349.46875 293.464844 349.183594 293.894531 C 348.226562 295.332031 347.753906 296.253906 347.824219 296.488281 C 348.042969 296.253906 348.21875 296.15625 348.496094 295.738281 C 349.460938 294.292969 349.984375 293.28125 349.839844 293.164062 " fill-opacity="1" fill-rule="nonzero"/><path fill="#edcb01" d="M 358.757812 194.3125 C 358.730469 193.945312 358.621094 193.410156 358.585938 193.472656 C 358.550781 193.53125 358.558594 194.238281 358.550781 194.660156 L 358.738281 195.574219 C 358.742188 195.148438 358.753906 194.679688 358.757812 194.3125 " fill-opacity="1" fill-rule="nonzero"/><path fill="#edcb01" d="M 359.90625 116.453125 C 360.089844 116.820312 360.292969 117.0625 360.492188 117.363281 C 360.308594 116.902344 360.097656 116.390625 359.9375 115.992188 C 359.75 115.613281 359.542969 115.375 359.347656 115.074219 C 359.535156 115.539062 359.742188 116.042969 359.90625 116.453125 " fill-opacity="1" fill-rule="nonzero"/><path fill="#edcb01" d="M 352.933594 167.398438 C 352.988281 167.921875 353.050781 168.535156 353.09375 168.941406 C 353.183594 169.433594 353.359375 170.058594 353.414062 170.082031 C 353.632812 170.175781 353.546875 169.28125 353.199219 167.882812 C 353.105469 167.507812 353.019531 167.550781 352.933594 167.398438 " fill-opacity="1" fill-rule="nonzero"/><path fill="#edcb01" d="M 331.890625 299.105469 L 332.695312 298.285156 L 332.90625 297.703125 Z M 331.890625 299.105469 " fill-opacity="1" fill-rule="nonzero"/><path fill="#edcb01" d="M 344.085938 85.742188 L 343.082031 84.34375 L 343.332031 84.917969 Z M 344.085938 85.742188 " fill-opacity="1" fill-rule="nonzero"/><path fill="#edcb01" d="M 91.683594 345.585938 L 90.839844 345.175781 L 92.125 345.988281 Z M 91.683594 345.585938 " fill-opacity="1" fill-rule="nonzero"/></g></g></g><g fill="#ffffff" fill-opacity="1"><g transform="translate(92.427582, 246.906364)"><g><path d="M 221.40625 -121.71875 C 221.164062 -121.113281 220.929688 -120.507812 220.703125 -119.90625 C 218.347656 -113.789062 215.804688 -107.769531 213.078125 -101.84375 C 199.023438 -72.625 183.925781 -44.359375 167.78125 -17.046875 C 162.53125 -8.234375 157.164062 0.421875 151.6875 8.921875 C 146.207031 17.429688 140.691406 25.910156 135.140625 34.359375 C 133.828125 36.335938 132.5 38.320312 131.15625 40.3125 C 131.09375 40.476562 131.023438 40.59375 130.953125 40.65625 C 130.648438 41.257812 130.296875 41.765625 129.890625 42.171875 C 129.492188 42.578125 128.957031 42.78125 128.28125 42.78125 C 127.976562 42.78125 127.65625 42.703125 127.3125 42.546875 C 126.976562 42.398438 126.710938 42.207031 126.515625 41.96875 C 126.347656 41.769531 126.226562 41.441406 126.15625 40.984375 C 126.09375 40.535156 126.128906 40.175781 126.265625 39.90625 C 127.171875 37.957031 128.179688 36.109375 129.296875 34.359375 C 131.785156 30.285156 134.289062 26.210938 136.8125 22.140625 C 141.550781 14.578125 146.207031 6.992188 150.78125 -0.609375 C 160.9375 -17.554688 170.640625 -34.859375 179.890625 -52.515625 C 189.140625 -70.171875 198.171875 -88.007812 206.984375 -106.03125 C 210.515625 -113 213.421875 -120.453125 215.703125 -128.390625 C 216.171875 -129.765625 216.53125 -131.191406 216.78125 -132.671875 C 217.039062 -134.148438 217.171875 -135.679688 217.171875 -137.265625 C 216.929688 -140.660156 215.484375 -142.140625 212.828125 -141.703125 C 210.472656 -141.234375 208.253906 -140.492188 206.171875 -139.484375 C 201.222656 -137.097656 196.347656 -134.457031 191.546875 -131.5625 C 165.710938 -115.882812 142.1875 -96.429688 120.96875 -73.203125 C 120.664062 -72.828125 120.328125 -72.457031 119.953125 -72.09375 C 112.628906 -64.113281 105.359375 -56.070312 98.140625 -47.96875 C 90.929688 -39.863281 83.925781 -31.523438 77.125 -22.953125 C 75.71875 -21.171875 74.238281 -19.503906 72.6875 -17.953125 C 71.039062 -16.242188 69.078125 -15.570312 66.796875 -15.9375 C 65.816406 -16.070312 65.015625 -16.550781 64.390625 -17.375 C 63.765625 -18.195312 63.519531 -19.164062 63.65625 -20.28125 C 64.132812 -23.300781 64.8125 -26.226562 65.6875 -29.0625 C 68.40625 -38 71.296875 -46.828125 74.359375 -55.546875 C 74.796875 -56.890625 75.195312 -58.179688 75.5625 -59.421875 C 76.375 -62.679688 77.519531 -65.691406 79 -68.453125 C 79 -68.523438 78.960938 -68.5625 78.890625 -68.5625 C 78.523438 -68.757812 78.15625 -68.914062 77.78125 -69.03125 C 77.414062 -69.15625 77.046875 -69.03125 76.671875 -68.65625 C 75.328125 -67.175781 74.035156 -65.628906 72.796875 -64.015625 C 62.566406 -50.160156 52.441406 -36.1875 42.421875 -22.09375 C 32.398438 -8 22.613281 6.328125 13.0625 20.890625 C 12.257812 22.296875 11.359375 23.441406 10.359375 24.328125 C 9.367188 25.222656 8.050781 25.519531 6.40625 25.21875 C 5.664062 25.019531 5.09375 24.566406 4.6875 23.859375 C 4.289062 23.148438 4.207031 22.460938 4.4375 21.796875 C 5.3125 19.804688 6.269531 17.921875 7.3125 16.140625 C 10.269531 11.023438 13.195312 5.914062 16.09375 0.8125 C 21.90625 -9.3125 27.671875 -19.488281 33.390625 -29.71875 C 42.273438 -45.382812 50.195312 -61.878906 57.15625 -79.203125 C 59.875 -85.859375 62.09375 -92.851562 63.8125 -100.1875 C 64.75 -104.082031 65.15625 -108.148438 65.03125 -112.390625 C 64.59375 -119.179688 62.335938 -124.039062 58.265625 -126.96875 C 54.191406 -129.894531 48.84375 -131.28125 42.21875 -131.125 C 35.59375 -130.976562 28.242188 -129.625 20.171875 -127.0625 C 12.109375 -124.507812 3.835938 -121.128906 -4.640625 -116.921875 C -13.117188 -112.722656 -21.289062 -108.082031 -29.15625 -103 C -37.03125 -97.925781 -44.035156 -92.78125 -50.171875 -87.5625 C -56.304688 -82.351562 -61.085938 -77.460938 -64.515625 -72.890625 C -68.117188 -67.847656 -71.179688 -62.300781 -73.703125 -56.25 C -74.984375 -53.351562 -75.722656 -50.207031 -75.921875 -46.8125 C -75.984375 -46.132812 -76.316406 -45.628906 -76.921875 -45.296875 C -77.535156 -44.960938 -78.210938 -44.863281 -78.953125 -45 C -80.128906 -45.363281 -80.867188 -46.285156 -81.171875 -47.765625 C -81.367188 -49.722656 -81.21875 -51.507812 -80.71875 -53.125 C -79.601562 -57.1875 -78.125 -61.035156 -76.28125 -64.671875 C -72.875 -71.023438 -67.707031 -77.515625 -60.78125 -84.140625 C -53.851562 -90.765625 -45.78125 -97.113281 -36.5625 -103.1875 C -27.351562 -109.257812 -17.738281 -114.671875 -7.71875 -119.421875 C 2.300781 -124.179688 12.101562 -127.878906 21.6875 -130.515625 C 31.269531 -133.160156 39.90625 -134.347656 47.59375 -134.078125 C 55.28125 -133.816406 61.34375 -131.707031 65.78125 -127.75 C 70.21875 -123.800781 72.367188 -117.570312 72.234375 -109.0625 C 72.003906 -103.582031 71.148438 -98.367188 69.671875 -93.421875 C 67.515625 -86.160156 65.03125 -79.140625 62.21875 -72.359375 C 59.414062 -65.585938 56.429688 -58.957031 53.265625 -52.46875 C 52.296875 -50.445312 52.085938 -49.460938 52.640625 -49.515625 C 53.191406 -49.566406 54.023438 -50.332031 55.140625 -51.8125 C 59.140625 -57.125 63.140625 -62.367188 67.140625 -67.546875 C 69.867188 -71.015625 72.644531 -74.410156 75.46875 -77.734375 C 75.832031 -78.203125 76.203125 -78.65625 76.578125 -79.09375 C 78.191406 -81.082031 80.140625 -82.410156 82.421875 -83.078125 C 84.140625 -83.453125 85.585938 -83.066406 86.765625 -81.921875 C 87.941406 -80.773438 88.347656 -79.0625 87.984375 -76.78125 C 87.910156 -76.539062 87.84375 -76.304688 87.78125 -76.078125 C 87.175781 -73.109375 86.46875 -70.234375 85.65625 -67.453125 C 83.5 -60.617188 81.28125 -53.835938 79 -47.109375 C 77.882812 -43.648438 76.773438 -40.140625 75.671875 -36.578125 C 75.429688 -36.066406 75.09375 -35.140625 74.65625 -33.796875 C 74.21875 -32.617188 73.796875 -31.457031 73.390625 -30.3125 C 72.992188 -29.175781 72.675781 -28.300781 72.4375 -27.6875 C 72.738281 -27.925781 75.476562 -31.003906 80.65625 -36.921875 C 87.6875 -44.992188 96.007812 -54.441406 105.625 -65.265625 C 115.25 -76.097656 122.800781 -84.375 128.28125 -90.09375 C 138.40625 -100.28125 149.070312 -109.550781 160.28125 -117.90625 C 171.5 -126.269531 183.128906 -133.832031 195.171875 -140.59375 C 198.128906 -142.132812 201.171875 -143.53125 204.296875 -144.78125 C 204.972656 -145.007812 205.628906 -145.273438 206.265625 -145.578125 C 209.234375 -146.753906 212.378906 -147.191406 215.703125 -146.890625 C 222.097656 -146.285156 225.023438 -142.253906 224.484375 -134.796875 C 224.109375 -130.148438 223.082031 -125.789062 221.40625 -121.71875 Z M 78.640625 -68.859375 C 78.804688 -68.722656 78.925781 -68.625 79 -68.5625 C 79 -68.5625 79 -68.523438 79 -68.453125 C 79.0625 -68.453125 79.09375 -68.488281 79.09375 -68.5625 C 78.957031 -68.625 78.804688 -68.722656 78.640625 -68.859375 Z M 78.640625 -68.859375 "/></g></g></g></svg>